# xmcd CD database file
#
# Track frame offsets:
#	150
#	23861
#	48831
#	84299
#	102114
#	135466
#	171651
#	227786
#	257531
#	300641
#
# Disc length: 4399 seconds
#
# Revision: 1
# Processed by: cddbd v1.5.1PL2 Copyright (c) Steve Scherf et al.
# Submitted via: jetAudio 5
#
DISCID=75112d0a
DTITLE=John Mayall - 70th Birthday Concert [CD1]
DYEAR=1900
DGENRE=
TTITLE0=Grits Ain't Groceries
TTITLE1=Jacksboro Highway
TTITLE2=Southside Story
TTITLE3=Kids Got the Blues
TTITLE4=Dirty Water
TTITLE5=Somebody's Acting Like a Child (Fea. Mick Taylor)
TTITLE6=Blues for the Lost Days (Fea. Mick Taylor)
TTITLE7=Walking on Sunset (Fea. Mick Taylor)
TTITLE8=Oh, Pretty Woman (Fea. Mick Taylor)
TTITLE9=No Big Hurry (Fea. Eric Clapton)
EXTD=
EXTT0=
EXTT1=
EXTT2=
EXTT3=
EXTT4=
EXTT5=
EXTT6=
EXTT7=
EXTT8=
EXTT9=
PLAYORDER=
